<mxfile host="Electron" agent="Mozilla/5.0 (Windows NT 10.0; Win64; x64) AppleWebKit/537.36 (KHTML, like Gecko) draw.io/24.7.5 Chrome/126.0.6478.183 Electron/31.3.0 Safari/537.36" version="24.7.5">
  <diagram name="Page-1" id="pJ3IBW4CoZ0uuMhevb6K">
    <mxGraphModel dx="1816" dy="577" grid="1" gridSize="10" guides="1" tooltips="1" connect="1" arrows="1" fold="1" page="1" pageScale="1" pageWidth="827" pageHeight="1169" math="0" shadow="0">
      <root>
        <mxCell id="0" />
        <mxCell id="1" parent="0" />
        <mxCell id="yaiSk_rFG9hSe_wohk-j-116" value="" style="rounded=0;whiteSpace=wrap;html=1;rotation=-15;" vertex="1" parent="1">
          <mxGeometry x="1180.03" y="352.5" width="242" height="242.14" as="geometry" />
        </mxCell>
        <mxCell id="yaiSk_rFG9hSe_wohk-j-97" style="edgeStyle=orthogonalEdgeStyle;rounded=0;orthogonalLoop=1;jettySize=auto;html=1;exitX=0.5;exitY=1;exitDx=0;exitDy=0;" edge="1" parent="1" source="yaiSk_rFG9hSe_wohk-j-95">
          <mxGeometry relative="1" as="geometry">
            <mxPoint x="1910" y="950" as="targetPoint" />
          </mxGeometry>
        </mxCell>
        <mxCell id="yaiSk_rFG9hSe_wohk-j-95" value="" style="rounded=0;whiteSpace=wrap;html=1;" vertex="1" parent="1">
          <mxGeometry x="1830" y="765" width="250" height="95" as="geometry" />
        </mxCell>
        <mxCell id="yaiSk_rFG9hSe_wohk-j-42" value="" style="rounded=0;whiteSpace=wrap;html=1;rotation=15;" vertex="1" parent="1">
          <mxGeometry x="813.35" y="200.16" width="156.65" height="129.68" as="geometry" />
        </mxCell>
        <mxCell id="yaiSk_rFG9hSe_wohk-j-31" style="edgeStyle=orthogonalEdgeStyle;rounded=0;orthogonalLoop=1;jettySize=auto;html=1;exitX=0.5;exitY=0;exitDx=0;exitDy=0;entryX=0.5;entryY=0;entryDx=0;entryDy=0;" edge="1" parent="1" source="yaiSk_rFG9hSe_wohk-j-23" target="yaiSk_rFG9hSe_wohk-j-3">
          <mxGeometry relative="1" as="geometry">
            <Array as="points">
              <mxPoint x="480" y="290" />
              <mxPoint x="390" y="290" />
            </Array>
          </mxGeometry>
        </mxCell>
        <mxCell id="yaiSk_rFG9hSe_wohk-j-32" style="edgeStyle=orthogonalEdgeStyle;rounded=0;orthogonalLoop=1;jettySize=auto;html=1;exitX=0.5;exitY=0;exitDx=0;exitDy=0;" edge="1" parent="1" source="yaiSk_rFG9hSe_wohk-j-23" target="yaiSk_rFG9hSe_wohk-j-4">
          <mxGeometry relative="1" as="geometry">
            <Array as="points">
              <mxPoint x="480" y="290" />
              <mxPoint x="530" y="290" />
            </Array>
          </mxGeometry>
        </mxCell>
        <mxCell id="yaiSk_rFG9hSe_wohk-j-23" value="" style="rounded=0;whiteSpace=wrap;html=1;fillColor=none;" vertex="1" parent="1">
          <mxGeometry x="260" y="270" width="440" height="255" as="geometry" />
        </mxCell>
        <mxCell id="yaiSk_rFG9hSe_wohk-j-50" style="edgeStyle=orthogonalEdgeStyle;rounded=0;orthogonalLoop=1;jettySize=auto;html=1;exitX=0.5;exitY=1;exitDx=0;exitDy=0;" edge="1" parent="1" source="yaiSk_rFG9hSe_wohk-j-19">
          <mxGeometry relative="1" as="geometry">
            <mxPoint x="340" y="910" as="targetPoint" />
          </mxGeometry>
        </mxCell>
        <mxCell id="yaiSk_rFG9hSe_wohk-j-19" value="" style="rounded=0;whiteSpace=wrap;html=1;" vertex="1" parent="1">
          <mxGeometry x="250" y="615" width="140" height="230" as="geometry" />
        </mxCell>
        <mxCell id="yaiSk_rFG9hSe_wohk-j-1" value="&quot;G:\Shared drives\Rosor\Apps\Drone_flight_creation_scripts\shorten_lines.py&quot;" style="rounded=1;whiteSpace=wrap;html=1;fillColor=#dae8fc;strokeColor=#6c8ebf;" vertex="1" parent="1">
          <mxGeometry x="330" y="100" width="450" height="50" as="geometry" />
        </mxCell>
        <mxCell id="yaiSk_rFG9hSe_wohk-j-2" value="generate lines" style="rounded=1;whiteSpace=wrap;html=1;" vertex="1" parent="1">
          <mxGeometry x="-50" y="580" width="100" height="80" as="geometry" />
        </mxCell>
        <mxCell id="yaiSk_rFG9hSe_wohk-j-29" style="edgeStyle=orthogonalEdgeStyle;rounded=0;orthogonalLoop=1;jettySize=auto;html=1;exitX=0.5;exitY=1;exitDx=0;exitDy=0;entryX=0.5;entryY=0;entryDx=0;entryDy=0;" edge="1" parent="1" source="yaiSk_rFG9hSe_wohk-j-3" target="yaiSk_rFG9hSe_wohk-j-26">
          <mxGeometry relative="1" as="geometry" />
        </mxCell>
        <mxCell id="yaiSk_rFG9hSe_wohk-j-3" value="with ties" style="rounded=1;whiteSpace=wrap;html=1;" vertex="1" parent="1">
          <mxGeometry x="340" y="320" width="100" height="50" as="geometry" />
        </mxCell>
        <mxCell id="yaiSk_rFG9hSe_wohk-j-37" style="edgeStyle=orthogonalEdgeStyle;rounded=0;orthogonalLoop=1;jettySize=auto;html=1;exitX=0.5;exitY=1;exitDx=0;exitDy=0;entryX=0.5;entryY=0;entryDx=0;entryDy=0;" edge="1" parent="1" source="yaiSk_rFG9hSe_wohk-j-4" target="yaiSk_rFG9hSe_wohk-j-35">
          <mxGeometry relative="1" as="geometry" />
        </mxCell>
        <mxCell id="yaiSk_rFG9hSe_wohk-j-4" value="no ties" style="rounded=1;whiteSpace=wrap;html=1;" vertex="1" parent="1">
          <mxGeometry x="480" y="320" width="100" height="50" as="geometry" />
        </mxCell>
        <mxCell id="yaiSk_rFG9hSe_wohk-j-16" style="edgeStyle=orthogonalEdgeStyle;rounded=0;orthogonalLoop=1;jettySize=auto;html=1;exitX=0.5;exitY=1;exitDx=0;exitDy=0;entryX=0.5;entryY=0;entryDx=0;entryDy=0;" edge="1" parent="1" source="yaiSk_rFG9hSe_wohk-j-5" target="yaiSk_rFG9hSe_wohk-j-6">
          <mxGeometry relative="1" as="geometry" />
        </mxCell>
        <mxCell id="yaiSk_rFG9hSe_wohk-j-5" value="" style="rounded=1;whiteSpace=wrap;html=1;" vertex="1" parent="1">
          <mxGeometry x="285" y="635" width="70" height="30" as="geometry" />
        </mxCell>
        <mxCell id="yaiSk_rFG9hSe_wohk-j-17" style="edgeStyle=orthogonalEdgeStyle;rounded=0;orthogonalLoop=1;jettySize=auto;html=1;exitX=0.5;exitY=1;exitDx=0;exitDy=0;entryX=0.5;entryY=0;entryDx=0;entryDy=0;" edge="1" parent="1" source="yaiSk_rFG9hSe_wohk-j-6" target="yaiSk_rFG9hSe_wohk-j-7">
          <mxGeometry relative="1" as="geometry" />
        </mxCell>
        <mxCell id="yaiSk_rFG9hSe_wohk-j-6" value="" style="rounded=1;whiteSpace=wrap;html=1;" vertex="1" parent="1">
          <mxGeometry x="285" y="685" width="70" height="30" as="geometry" />
        </mxCell>
        <mxCell id="yaiSk_rFG9hSe_wohk-j-18" style="edgeStyle=orthogonalEdgeStyle;rounded=0;orthogonalLoop=1;jettySize=auto;html=1;exitX=0.5;exitY=1;exitDx=0;exitDy=0;entryX=0.5;entryY=0;entryDx=0;entryDy=0;" edge="1" parent="1" source="yaiSk_rFG9hSe_wohk-j-7" target="yaiSk_rFG9hSe_wohk-j-8">
          <mxGeometry relative="1" as="geometry" />
        </mxCell>
        <mxCell id="yaiSk_rFG9hSe_wohk-j-7" value="" style="rounded=1;whiteSpace=wrap;html=1;" vertex="1" parent="1">
          <mxGeometry x="285" y="735" width="70" height="30" as="geometry" />
        </mxCell>
        <mxCell id="yaiSk_rFG9hSe_wohk-j-8" value="" style="rounded=1;whiteSpace=wrap;html=1;" vertex="1" parent="1">
          <mxGeometry x="285" y="785" width="70" height="30" as="geometry" />
        </mxCell>
        <mxCell id="yaiSk_rFG9hSe_wohk-j-9" value="flt" style="endArrow=none;dashed=1;html=1;dashPattern=1 3;strokeWidth=2;rounded=0;exitX=1;exitY=0.25;exitDx=0;exitDy=0;entryX=0;entryY=0.5;entryDx=0;entryDy=0;" edge="1" parent="1" source="yaiSk_rFG9hSe_wohk-j-2" target="yaiSk_rFG9hSe_wohk-j-5">
          <mxGeometry width="50" height="50" relative="1" as="geometry">
            <mxPoint x="180" y="735" as="sourcePoint" />
            <mxPoint x="500" y="585" as="targetPoint" />
          </mxGeometry>
        </mxCell>
        <mxCell id="yaiSk_rFG9hSe_wohk-j-10" value="tie" style="endArrow=none;dashed=1;html=1;dashPattern=1 3;strokeWidth=2;rounded=0;exitX=1;exitY=0.413;exitDx=0;exitDy=0;entryX=0;entryY=0.5;entryDx=0;entryDy=0;exitPerimeter=0;" edge="1" parent="1" source="yaiSk_rFG9hSe_wohk-j-2" target="yaiSk_rFG9hSe_wohk-j-6">
          <mxGeometry width="50" height="50" relative="1" as="geometry">
            <mxPoint x="180" y="755" as="sourcePoint" />
            <mxPoint x="295" y="660" as="targetPoint" />
          </mxGeometry>
        </mxCell>
        <mxCell id="yaiSk_rFG9hSe_wohk-j-12" value="flt" style="endArrow=none;dashed=1;html=1;dashPattern=1 3;strokeWidth=2;rounded=0;exitX=1.02;exitY=0.638;exitDx=0;exitDy=0;entryX=0;entryY=0.5;entryDx=0;entryDy=0;exitPerimeter=0;" edge="1" parent="1" source="yaiSk_rFG9hSe_wohk-j-2" target="yaiSk_rFG9hSe_wohk-j-7">
          <mxGeometry width="50" height="50" relative="1" as="geometry">
            <mxPoint x="180" y="775" as="sourcePoint" />
            <mxPoint x="295" y="710" as="targetPoint" />
          </mxGeometry>
        </mxCell>
        <mxCell id="yaiSk_rFG9hSe_wohk-j-14" value="tie" style="endArrow=none;dashed=1;html=1;dashPattern=1 3;strokeWidth=2;rounded=0;exitX=1;exitY=0.75;exitDx=0;exitDy=0;entryX=0;entryY=0.5;entryDx=0;entryDy=0;" edge="1" parent="1" source="yaiSk_rFG9hSe_wohk-j-2" target="yaiSk_rFG9hSe_wohk-j-8">
          <mxGeometry width="50" height="50" relative="1" as="geometry">
            <mxPoint x="178" y="787" as="sourcePoint" />
            <mxPoint x="295" y="760" as="targetPoint" />
          </mxGeometry>
        </mxCell>
        <UserObject label="display_w_ties_Sharj.py" link="display_w_ties_Sharj.py" id="yaiSk_rFG9hSe_wohk-j-20">
          <mxCell style="text;whiteSpace=wrap;" vertex="1" parent="1">
            <mxGeometry x="170" y="585" width="160" height="35" as="geometry" />
          </mxCell>
        </UserObject>
        <UserObject label="plugin_next_app_stage.py" link="plugin_next_app_stage.py" id="yaiSk_rFG9hSe_wohk-j-22">
          <mxCell style="text;whiteSpace=wrap;" vertex="1" parent="1">
            <mxGeometry x="210" y="240.47" width="170" height="40" as="geometry" />
          </mxCell>
        </UserObject>
        <mxCell id="yaiSk_rFG9hSe_wohk-j-24" value="flt" style="endArrow=none;dashed=1;html=1;dashPattern=1 3;strokeWidth=2;rounded=0;exitX=0.25;exitY=0;exitDx=0;exitDy=0;entryX=0;entryY=0.5;entryDx=0;entryDy=0;" edge="1" parent="1" source="yaiSk_rFG9hSe_wohk-j-2" target="yaiSk_rFG9hSe_wohk-j-26">
          <mxGeometry width="50" height="50" relative="1" as="geometry">
            <mxPoint x="60" y="610" as="sourcePoint" />
            <mxPoint x="295" y="660" as="targetPoint" />
          </mxGeometry>
        </mxCell>
        <mxCell id="yaiSk_rFG9hSe_wohk-j-25" value="tie" style="endArrow=none;dashed=1;html=1;dashPattern=1 3;strokeWidth=2;rounded=0;exitX=0.75;exitY=0;exitDx=0;exitDy=0;entryX=0;entryY=0.5;entryDx=0;entryDy=0;" edge="1" parent="1" source="yaiSk_rFG9hSe_wohk-j-2" target="yaiSk_rFG9hSe_wohk-j-27">
          <mxGeometry width="50" height="50" relative="1" as="geometry">
            <mxPoint x="-15" y="590" as="sourcePoint" />
            <mxPoint x="270" y="431" as="targetPoint" />
          </mxGeometry>
        </mxCell>
        <mxCell id="yaiSk_rFG9hSe_wohk-j-28" style="edgeStyle=orthogonalEdgeStyle;rounded=0;orthogonalLoop=1;jettySize=auto;html=1;exitX=0.5;exitY=1;exitDx=0;exitDy=0;entryX=0.5;entryY=0;entryDx=0;entryDy=0;" edge="1" parent="1" source="yaiSk_rFG9hSe_wohk-j-26" target="yaiSk_rFG9hSe_wohk-j-27">
          <mxGeometry relative="1" as="geometry" />
        </mxCell>
        <mxCell id="yaiSk_rFG9hSe_wohk-j-26" value="" style="rounded=1;whiteSpace=wrap;html=1;" vertex="1" parent="1">
          <mxGeometry x="295" y="410" width="70" height="30" as="geometry" />
        </mxCell>
        <mxCell id="yaiSk_rFG9hSe_wohk-j-30" style="edgeStyle=orthogonalEdgeStyle;rounded=0;orthogonalLoop=1;jettySize=auto;html=1;exitX=0.5;exitY=1;exitDx=0;exitDy=0;entryX=0.5;entryY=0;entryDx=0;entryDy=0;" edge="1" parent="1" source="yaiSk_rFG9hSe_wohk-j-27" target="yaiSk_rFG9hSe_wohk-j-5">
          <mxGeometry relative="1" as="geometry" />
        </mxCell>
        <mxCell id="yaiSk_rFG9hSe_wohk-j-27" value="" style="rounded=1;whiteSpace=wrap;html=1;" vertex="1" parent="1">
          <mxGeometry x="295" y="460" width="70" height="30" as="geometry" />
        </mxCell>
        <mxCell id="yaiSk_rFG9hSe_wohk-j-33" value="tie" style="endArrow=none;dashed=1;html=1;dashPattern=1 3;strokeWidth=2;rounded=0;exitX=1.02;exitY=0.088;exitDx=0;exitDy=0;exitPerimeter=0;entryX=0;entryY=0.5;entryDx=0;entryDy=0;" edge="1" parent="1" source="yaiSk_rFG9hSe_wohk-j-2" target="yaiSk_rFG9hSe_wohk-j-35">
          <mxGeometry width="50" height="50" relative="1" as="geometry">
            <mxPoint x="35" y="590" as="sourcePoint" />
            <mxPoint x="530" y="550" as="targetPoint" />
          </mxGeometry>
        </mxCell>
        <mxCell id="yaiSk_rFG9hSe_wohk-j-49" style="edgeStyle=orthogonalEdgeStyle;rounded=0;orthogonalLoop=1;jettySize=auto;html=1;exitX=0.5;exitY=1;exitDx=0;exitDy=0;" edge="1" parent="1" source="yaiSk_rFG9hSe_wohk-j-35">
          <mxGeometry relative="1" as="geometry">
            <mxPoint x="500" y="890" as="targetPoint" />
          </mxGeometry>
        </mxCell>
        <mxCell id="yaiSk_rFG9hSe_wohk-j-35" value="" style="rounded=1;whiteSpace=wrap;html=1;" vertex="1" parent="1">
          <mxGeometry x="495" y="540" width="70" height="30" as="geometry" />
        </mxCell>
        <mxCell id="yaiSk_rFG9hSe_wohk-j-38" value="" style="rounded=0;whiteSpace=wrap;html=1;rotation=15.3;" vertex="1" parent="1">
          <mxGeometry x="840.24" y="223.06" width="100.39" height="74.82" as="geometry" />
        </mxCell>
        <mxCell id="yaiSk_rFG9hSe_wohk-j-39" value="" style="endArrow=none;html=1;rounded=0;" edge="1" parent="1">
          <mxGeometry width="50" height="50" relative="1" as="geometry">
            <mxPoint x="843" y="295" as="sourcePoint" />
            <mxPoint x="865" y="209" as="targetPoint" />
          </mxGeometry>
        </mxCell>
        <mxCell id="yaiSk_rFG9hSe_wohk-j-40" value="" style="endArrow=none;html=1;rounded=0;" edge="1" parent="1">
          <mxGeometry width="50" height="50" relative="1" as="geometry">
            <mxPoint x="878" y="305" as="sourcePoint" />
            <mxPoint x="900" y="220" as="targetPoint" />
          </mxGeometry>
        </mxCell>
        <mxCell id="yaiSk_rFG9hSe_wohk-j-41" value="" style="endArrow=none;html=1;rounded=0;" edge="1" parent="1">
          <mxGeometry width="50" height="50" relative="1" as="geometry">
            <mxPoint x="919" y="315" as="sourcePoint" />
            <mxPoint x="942" y="228" as="targetPoint" />
          </mxGeometry>
        </mxCell>
        <mxCell id="yaiSk_rFG9hSe_wohk-j-43" value="" style="endArrow=classic;startArrow=classic;html=1;rounded=0;entryX=1;entryY=0.5;entryDx=0;entryDy=0;exitX=1;exitY=0.5;exitDx=0;exitDy=0;" edge="1" parent="1" source="yaiSk_rFG9hSe_wohk-j-38" target="yaiSk_rFG9hSe_wohk-j-42">
          <mxGeometry width="50" height="50" relative="1" as="geometry">
            <mxPoint x="660" y="340" as="sourcePoint" />
            <mxPoint x="710" y="290" as="targetPoint" />
          </mxGeometry>
        </mxCell>
        <mxCell id="yaiSk_rFG9hSe_wohk-j-44" value="" style="endArrow=classic;startArrow=classic;html=1;rounded=0;entryX=0.61;entryY=0.01;entryDx=0;entryDy=0;exitX=0.75;exitY=0;exitDx=0;exitDy=0;entryPerimeter=0;" edge="1" parent="1" source="yaiSk_rFG9hSe_wohk-j-38" target="yaiSk_rFG9hSe_wohk-j-42">
          <mxGeometry width="50" height="50" relative="1" as="geometry">
            <mxPoint x="949" y="284" as="sourcePoint" />
            <mxPoint x="976" y="295" as="targetPoint" />
          </mxGeometry>
        </mxCell>
        <mxCell id="yaiSk_rFG9hSe_wohk-j-48" value="Actor" style="shape=umlActor;verticalLabelPosition=bottom;verticalAlign=top;html=1;outlineConnect=0;" vertex="1" parent="1">
          <mxGeometry x="464.9968965517242" y="909.9993103448274" width="30" height="60" as="geometry" />
        </mxCell>
        <mxCell id="yaiSk_rFG9hSe_wohk-j-51" value="&lt;b&gt;&lt;font style=&quot;font-size: 23px;&quot;&gt;OLD&lt;/font&gt;&lt;/b&gt;" style="text;html=1;align=center;verticalAlign=middle;whiteSpace=wrap;rounded=0;" vertex="1" parent="1">
          <mxGeometry x="140" y="100" width="60" height="30" as="geometry" />
        </mxCell>
        <mxCell id="yaiSk_rFG9hSe_wohk-j-53" style="edgeStyle=orthogonalEdgeStyle;rounded=0;orthogonalLoop=1;jettySize=auto;html=1;exitX=0.5;exitY=0;exitDx=0;exitDy=0;entryX=0.5;entryY=0;entryDx=0;entryDy=0;" edge="1" parent="1" source="yaiSk_rFG9hSe_wohk-j-55" target="yaiSk_rFG9hSe_wohk-j-61">
          <mxGeometry relative="1" as="geometry">
            <Array as="points">
              <mxPoint x="1830" y="310" />
              <mxPoint x="1740" y="310" />
            </Array>
          </mxGeometry>
        </mxCell>
        <mxCell id="yaiSk_rFG9hSe_wohk-j-54" style="edgeStyle=orthogonalEdgeStyle;rounded=0;orthogonalLoop=1;jettySize=auto;html=1;exitX=0.5;exitY=0;exitDx=0;exitDy=0;" edge="1" parent="1" source="yaiSk_rFG9hSe_wohk-j-55" target="yaiSk_rFG9hSe_wohk-j-63">
          <mxGeometry relative="1" as="geometry">
            <Array as="points">
              <mxPoint x="1830" y="310" />
              <mxPoint x="1880" y="310" />
            </Array>
          </mxGeometry>
        </mxCell>
        <mxCell id="yaiSk_rFG9hSe_wohk-j-55" value="" style="rounded=0;whiteSpace=wrap;html=1;fillColor=none;" vertex="1" parent="1">
          <mxGeometry x="1610" y="290" width="440" height="255" as="geometry" />
        </mxCell>
        <mxCell id="yaiSk_rFG9hSe_wohk-j-56" style="edgeStyle=orthogonalEdgeStyle;rounded=0;orthogonalLoop=1;jettySize=auto;html=1;exitX=0.5;exitY=1;exitDx=0;exitDy=0;" edge="1" parent="1" source="yaiSk_rFG9hSe_wohk-j-57">
          <mxGeometry relative="1" as="geometry">
            <mxPoint x="1690" y="930" as="targetPoint" />
          </mxGeometry>
        </mxCell>
        <mxCell id="yaiSk_rFG9hSe_wohk-j-57" value="" style="rounded=0;whiteSpace=wrap;html=1;" vertex="1" parent="1">
          <mxGeometry x="1600" y="635" width="140" height="230" as="geometry" />
        </mxCell>
        <mxCell id="yaiSk_rFG9hSe_wohk-j-58" value="&quot;G:\Shared drives\Rosor\Apps\Drone_flight_creation_scripts\shorten_lines.py&quot;" style="rounded=1;whiteSpace=wrap;html=1;fillColor=#dae8fc;strokeColor=#6c8ebf;" vertex="1" parent="1">
          <mxGeometry x="1780" y="645" width="450" height="50" as="geometry" />
        </mxCell>
        <mxCell id="yaiSk_rFG9hSe_wohk-j-59" value="generate lines" style="rounded=1;whiteSpace=wrap;html=1;" vertex="1" parent="1">
          <mxGeometry x="2180" y="510" width="100" height="80" as="geometry" />
        </mxCell>
        <mxCell id="yaiSk_rFG9hSe_wohk-j-60" style="edgeStyle=orthogonalEdgeStyle;rounded=0;orthogonalLoop=1;jettySize=auto;html=1;exitX=0.5;exitY=1;exitDx=0;exitDy=0;entryX=0.5;entryY=0;entryDx=0;entryDy=0;" edge="1" parent="1" source="yaiSk_rFG9hSe_wohk-j-61">
          <mxGeometry relative="1" as="geometry">
            <mxPoint x="1680" y="430" as="targetPoint" />
          </mxGeometry>
        </mxCell>
        <mxCell id="yaiSk_rFG9hSe_wohk-j-61" value="with ties" style="rounded=1;whiteSpace=wrap;html=1;" vertex="1" parent="1">
          <mxGeometry x="1690" y="340" width="100" height="50" as="geometry" />
        </mxCell>
        <mxCell id="yaiSk_rFG9hSe_wohk-j-62" style="edgeStyle=orthogonalEdgeStyle;rounded=0;orthogonalLoop=1;jettySize=auto;html=1;exitX=0.5;exitY=1;exitDx=0;exitDy=0;entryX=0.5;entryY=0;entryDx=0;entryDy=0;" edge="1" parent="1" source="yaiSk_rFG9hSe_wohk-j-63" target="yaiSk_rFG9hSe_wohk-j-85">
          <mxGeometry relative="1" as="geometry" />
        </mxCell>
        <mxCell id="yaiSk_rFG9hSe_wohk-j-63" value="no ties" style="rounded=1;whiteSpace=wrap;html=1;" vertex="1" parent="1">
          <mxGeometry x="1830" y="340" width="100" height="50" as="geometry" />
        </mxCell>
        <UserObject label="display_w_ties_Sharj.py" link="display_w_ties_Sharj.py" id="yaiSk_rFG9hSe_wohk-j-75">
          <mxCell style="text;whiteSpace=wrap;" vertex="1" parent="1">
            <mxGeometry x="1520" y="605" width="160" height="35" as="geometry" />
          </mxCell>
        </UserObject>
        <UserObject label="plugin_next_app_stage.py" link="plugin_next_app_stage.py" id="yaiSk_rFG9hSe_wohk-j-76">
          <mxCell style="text;whiteSpace=wrap;" vertex="1" parent="1">
            <mxGeometry x="1630" y="260.47" width="170" height="40" as="geometry" />
          </mxCell>
        </UserObject>
        <mxCell id="yaiSk_rFG9hSe_wohk-j-84" style="edgeStyle=orthogonalEdgeStyle;rounded=0;orthogonalLoop=1;jettySize=auto;html=1;exitX=0.5;exitY=1;exitDx=0;exitDy=0;" edge="1" parent="1" source="yaiSk_rFG9hSe_wohk-j-85">
          <mxGeometry relative="1" as="geometry">
            <mxPoint x="1880" y="650" as="targetPoint" />
          </mxGeometry>
        </mxCell>
        <mxCell id="yaiSk_rFG9hSe_wohk-j-85" value="" style="rounded=1;whiteSpace=wrap;html=1;" vertex="1" parent="1">
          <mxGeometry x="1845" y="560" width="70" height="30" as="geometry" />
        </mxCell>
        <mxCell id="yaiSk_rFG9hSe_wohk-j-92" value="Actor" style="shape=umlActor;verticalLabelPosition=bottom;verticalAlign=top;html=1;outlineConnect=0;" vertex="1" parent="1">
          <mxGeometry x="1799.9968965517241" y="989.9993103448274" width="30" height="60" as="geometry" />
        </mxCell>
        <mxCell id="yaiSk_rFG9hSe_wohk-j-93" value="&lt;b&gt;&lt;font style=&quot;font-size: 23px;&quot;&gt;NEW&lt;/font&gt;&lt;/b&gt;" style="text;html=1;align=center;verticalAlign=middle;whiteSpace=wrap;rounded=0;" vertex="1" parent="1">
          <mxGeometry x="1580" y="40" width="60" height="30" as="geometry" />
        </mxCell>
        <UserObject label="display_no_ties.py" link="display_w_ties_Sharj.py" id="yaiSk_rFG9hSe_wohk-j-94">
          <mxCell style="text;whiteSpace=wrap;" vertex="1" parent="1">
            <mxGeometry x="1800" y="740" width="160" height="35" as="geometry" />
          </mxCell>
        </UserObject>
        <mxCell id="yaiSk_rFG9hSe_wohk-j-96" style="edgeStyle=orthogonalEdgeStyle;rounded=0;orthogonalLoop=1;jettySize=auto;html=1;exitX=0.5;exitY=1;exitDx=0;exitDy=0;entryX=0.702;entryY=0.004;entryDx=0;entryDy=0;entryPerimeter=0;" edge="1" parent="1" source="yaiSk_rFG9hSe_wohk-j-58" target="yaiSk_rFG9hSe_wohk-j-95">
          <mxGeometry relative="1" as="geometry" />
        </mxCell>
        <mxCell id="yaiSk_rFG9hSe_wohk-j-98" value="" style="endArrow=none;dashed=1;html=1;dashPattern=1 3;strokeWidth=2;rounded=0;entryX=0;entryY=0.5;entryDx=0;entryDy=0;exitX=1;exitY=0.5;exitDx=0;exitDy=0;" edge="1" parent="1" source="yaiSk_rFG9hSe_wohk-j-85" target="yaiSk_rFG9hSe_wohk-j-59">
          <mxGeometry width="50" height="50" relative="1" as="geometry">
            <mxPoint x="1830" y="690" as="sourcePoint" />
            <mxPoint x="1880" y="640" as="targetPoint" />
          </mxGeometry>
        </mxCell>
        <mxCell id="yaiSk_rFG9hSe_wohk-j-108" value="" style="endArrow=none;html=1;rounded=0;" edge="1" parent="1">
          <mxGeometry width="50" height="50" relative="1" as="geometry">
            <mxPoint x="1190" y="492.29" as="sourcePoint" />
            <mxPoint x="1300" y="352.29" as="targetPoint" />
          </mxGeometry>
        </mxCell>
        <mxCell id="yaiSk_rFG9hSe_wohk-j-109" value="" style="endArrow=none;html=1;rounded=0;" edge="1" parent="1">
          <mxGeometry width="50" height="50" relative="1" as="geometry">
            <mxPoint x="1300" y="412.29" as="sourcePoint" />
            <mxPoint x="1300" y="352.29" as="targetPoint" />
          </mxGeometry>
        </mxCell>
        <mxCell id="yaiSk_rFG9hSe_wohk-j-110" value="" style="endArrow=none;html=1;rounded=0;" edge="1" parent="1">
          <mxGeometry width="50" height="50" relative="1" as="geometry">
            <mxPoint x="1300" y="412.29" as="sourcePoint" />
            <mxPoint x="1393" y="463" as="targetPoint" />
          </mxGeometry>
        </mxCell>
        <mxCell id="yaiSk_rFG9hSe_wohk-j-111" value="" style="endArrow=none;html=1;rounded=0;" edge="1" parent="1">
          <mxGeometry width="50" height="50" relative="1" as="geometry">
            <mxPoint x="1380" y="512.29" as="sourcePoint" />
            <mxPoint x="1393" y="461" as="targetPoint" />
          </mxGeometry>
        </mxCell>
        <mxCell id="yaiSk_rFG9hSe_wohk-j-112" value="" style="endArrow=none;html=1;rounded=0;" edge="1" parent="1">
          <mxGeometry width="50" height="50" relative="1" as="geometry">
            <mxPoint x="1380" y="512.29" as="sourcePoint" />
            <mxPoint x="1260" y="502.29" as="targetPoint" />
          </mxGeometry>
        </mxCell>
        <mxCell id="yaiSk_rFG9hSe_wohk-j-113" value="" style="endArrow=none;html=1;rounded=0;" edge="1" parent="1">
          <mxGeometry width="50" height="50" relative="1" as="geometry">
            <mxPoint x="1260" y="502.29" as="sourcePoint" />
            <mxPoint x="1270" y="572.29" as="targetPoint" />
          </mxGeometry>
        </mxCell>
        <mxCell id="yaiSk_rFG9hSe_wohk-j-114" value="" style="endArrow=none;html=1;rounded=0;" edge="1" parent="1">
          <mxGeometry width="50" height="50" relative="1" as="geometry">
            <mxPoint x="1190" y="492.29" as="sourcePoint" />
            <mxPoint x="1270" y="572.29" as="targetPoint" />
          </mxGeometry>
        </mxCell>
        <mxCell id="yaiSk_rFG9hSe_wohk-j-115" value="" style="shape=mxgraph.signs.transportation.anchor_3;html=1;pointerEvents=1;fillColor=#000000;strokeColor=none;verticalLabelPosition=bottom;verticalAlign=top;align=center;" vertex="1" parent="1">
          <mxGeometry x="1230" y="466" width="20" height="20" as="geometry" />
        </mxCell>
        <mxCell id="yaiSk_rFG9hSe_wohk-j-118" value="" style="endArrow=none;html=1;rounded=0;" edge="1" parent="1">
          <mxGeometry width="50" height="50" relative="1" as="geometry">
            <mxPoint x="1181" y="495" as="sourcePoint" />
            <mxPoint x="1415" y="432" as="targetPoint" />
            <Array as="points">
              <mxPoint x="1260" y="472" />
            </Array>
          </mxGeometry>
        </mxCell>
        <mxCell id="yaiSk_rFG9hSe_wohk-j-120" value="123" style="text;html=1;align=center;verticalAlign=middle;whiteSpace=wrap;rounded=0;" vertex="1" parent="1">
          <mxGeometry x="1440" y="352.29" width="60" height="30" as="geometry" />
        </mxCell>
        <mxCell id="yaiSk_rFG9hSe_wohk-j-121" value="150" style="text;html=1;align=center;verticalAlign=middle;whiteSpace=wrap;rounded=0;" vertex="1" parent="1">
          <mxGeometry x="1440" y="392.29" width="60" height="30" as="geometry" />
        </mxCell>
        <mxCell id="yaiSk_rFG9hSe_wohk-j-122" value="4 +3 * 50m = 200" style="text;html=1;align=center;verticalAlign=middle;whiteSpace=wrap;rounded=0;" vertex="1" parent="1">
          <mxGeometry x="1450" y="442.29" width="100" height="30" as="geometry" />
        </mxCell>
        <mxCell id="yaiSk_rFG9hSe_wohk-j-123" value="" style="endArrow=none;html=1;rounded=0;" edge="1" parent="1">
          <mxGeometry width="50" height="50" relative="1" as="geometry">
            <mxPoint x="1327" y="616" as="sourcePoint" />
            <mxPoint x="1253" y="336" as="targetPoint" />
          </mxGeometry>
        </mxCell>
        <mxCell id="yaiSk_rFG9hSe_wohk-j-124" value="" style="endArrow=none;html=1;rounded=0;" edge="1" parent="1">
          <mxGeometry width="50" height="50" relative="1" as="geometry">
            <mxPoint x="1378" y="599" as="sourcePoint" />
            <mxPoint x="1301" y="322" as="targetPoint" />
          </mxGeometry>
        </mxCell>
        <mxCell id="yaiSk_rFG9hSe_wohk-j-125" value="" style="endArrow=none;html=1;rounded=0;" edge="1" parent="1">
          <mxGeometry width="50" height="50" relative="1" as="geometry">
            <mxPoint x="1417" y="590" as="sourcePoint" />
            <mxPoint x="1342" y="308" as="targetPoint" />
          </mxGeometry>
        </mxCell>
        <mxCell id="yaiSk_rFG9hSe_wohk-j-127" value="50m = flt line spacing" style="text;html=1;align=center;verticalAlign=middle;whiteSpace=wrap;rounded=0;" vertex="1" parent="1">
          <mxGeometry x="1500" y="402.5" width="80" height="30" as="geometry" />
        </mxCell>
        <mxCell id="yaiSk_rFG9hSe_wohk-j-129" value="" style="triangle;whiteSpace=wrap;html=1;rotation=120;fillColor=#f8cecc;strokeColor=#b85450;" vertex="1" parent="1">
          <mxGeometry x="1333" y="428" width="20" height="35" as="geometry" />
        </mxCell>
        <mxCell id="yaiSk_rFG9hSe_wohk-j-131" value="&lt;b&gt;&lt;font color=&quot;#ff0000&quot; style=&quot;font-size: 16px;&quot;&gt;X&lt;/font&gt;&lt;/b&gt;" style="text;html=1;align=center;verticalAlign=middle;whiteSpace=wrap;rounded=0;" vertex="1" parent="1">
          <mxGeometry x="1353" y="317.88" width="33" height="30" as="geometry" />
        </mxCell>
        <mxCell id="yaiSk_rFG9hSe_wohk-j-132" value="" style="sketch=0;html=1;aspect=fixed;strokeColor=none;shadow=0;align=center;fillColor=#2D9C5E;verticalAlign=top;labelPosition=center;verticalLabelPosition=bottom;shape=mxgraph.gcp2.check" vertex="1" parent="1">
          <mxGeometry x="1422.03" y="500" width="31.25" height="25" as="geometry" />
        </mxCell>
        <mxCell id="yaiSk_rFG9hSe_wohk-j-133" value="" style="sketch=0;html=1;aspect=fixed;strokeColor=none;shadow=0;align=center;fillColor=#2D9C5E;verticalAlign=top;labelPosition=center;verticalLabelPosition=bottom;shape=mxgraph.gcp2.check" vertex="1" parent="1">
          <mxGeometry x="1390.78" y="520" width="31.25" height="25" as="geometry" />
        </mxCell>
        <mxCell id="yaiSk_rFG9hSe_wohk-j-134" value="" style="sketch=0;html=1;aspect=fixed;strokeColor=none;shadow=0;align=center;fillColor=#2D9C5E;verticalAlign=top;labelPosition=center;verticalLabelPosition=bottom;shape=mxgraph.gcp2.check" vertex="1" parent="1">
          <mxGeometry x="1416" y="551" width="31.25" height="25" as="geometry" />
        </mxCell>
        <mxCell id="yaiSk_rFG9hSe_wohk-j-136" value="&lt;b&gt;&lt;font color=&quot;#ff0000&quot; style=&quot;font-size: 16px;&quot;&gt;X&lt;/font&gt;&lt;/b&gt;" style="text;html=1;align=center;verticalAlign=middle;whiteSpace=wrap;rounded=0;" vertex="1" parent="1">
          <mxGeometry x="1389.03" y="370" width="33" height="30" as="geometry" />
        </mxCell>
        <mxCell id="yaiSk_rFG9hSe_wohk-j-140" value="" style="sketch=0;html=1;aspect=fixed;strokeColor=none;shadow=0;align=center;fillColor=#2D9C5E;verticalAlign=top;labelPosition=center;verticalLabelPosition=bottom;shape=mxgraph.gcp2.check" vertex="1" parent="1">
          <mxGeometry x="1310" y="381" width="31.25" height="25" as="geometry" />
        </mxCell>
        <mxCell id="yaiSk_rFG9hSe_wohk-j-143" value="" style="sketch=0;html=1;aspect=fixed;strokeColor=none;shadow=0;align=center;fillColor=#2D9C5E;verticalAlign=top;labelPosition=center;verticalLabelPosition=bottom;shape=mxgraph.gcp2.check" vertex="1" parent="1">
          <mxGeometry x="1382" y="425" width="31.25" height="25" as="geometry" />
        </mxCell>
        <mxCell id="yaiSk_rFG9hSe_wohk-j-144" value="" style="sketch=0;html=1;aspect=fixed;strokeColor=none;shadow=0;align=center;fillColor=#2D9C5E;verticalAlign=top;labelPosition=center;verticalLabelPosition=bottom;shape=mxgraph.gcp2.check" vertex="1" parent="1">
          <mxGeometry x="1343" y="435" width="31.25" height="25" as="geometry" />
        </mxCell>
        <mxCell id="yaiSk_rFG9hSe_wohk-j-145" value="" style="sketch=0;html=1;aspect=fixed;strokeColor=none;shadow=0;align=center;fillColor=#2D9C5E;verticalAlign=top;labelPosition=center;verticalLabelPosition=bottom;shape=mxgraph.gcp2.check" vertex="1" parent="1">
          <mxGeometry x="1357" y="376" width="31.25" height="25" as="geometry" />
        </mxCell>
        <mxCell id="yaiSk_rFG9hSe_wohk-j-146" value="" style="sketch=0;html=1;aspect=fixed;strokeColor=none;shadow=0;align=center;fillColor=#2D9C5E;verticalAlign=top;labelPosition=center;verticalLabelPosition=bottom;shape=mxgraph.gcp2.check" vertex="1" parent="1">
          <mxGeometry x="1316" y="325" width="31.25" height="25" as="geometry" />
        </mxCell>
        <mxCell id="yaiSk_rFG9hSe_wohk-j-150" value="" style="endArrow=none;html=1;rounded=0;" edge="1" parent="1">
          <mxGeometry width="50" height="50" relative="1" as="geometry">
            <mxPoint x="1280" y="630" as="sourcePoint" />
            <mxPoint x="1201" y="346" as="targetPoint" />
          </mxGeometry>
        </mxCell>
        <mxCell id="yaiSk_rFG9hSe_wohk-j-153" value="" style="endArrow=none;dashed=1;html=1;dashPattern=1 3;strokeWidth=2;rounded=0;fillColor=#f8cecc;strokeColor=#b85450;" edge="1" parent="1">
          <mxGeometry width="50" height="50" relative="1" as="geometry">
            <mxPoint x="1162" y="501" as="sourcePoint" />
            <mxPoint x="1195" y="491" as="targetPoint" />
          </mxGeometry>
        </mxCell>
        <mxCell id="yaiSk_rFG9hSe_wohk-j-154" value="" style="endArrow=none;html=1;rounded=0;" edge="1" parent="1">
          <mxGeometry width="50" height="50" relative="1" as="geometry">
            <mxPoint x="1115" y="396" as="sourcePoint" />
            <mxPoint x="1180" y="628.6666666666666" as="targetPoint" />
          </mxGeometry>
        </mxCell>
        <mxCell id="yaiSk_rFG9hSe_wohk-j-155" value="" style="endArrow=none;html=1;rounded=0;" edge="1" parent="1">
          <mxGeometry width="50" height="50" relative="1" as="geometry">
            <mxPoint x="1146" y="507" as="sourcePoint" />
            <mxPoint x="1183" y="495" as="targetPoint" />
          </mxGeometry>
        </mxCell>
        <mxCell id="yaiSk_rFG9hSe_wohk-j-156" value="" style="endArrow=none;html=1;rounded=0;" edge="1" parent="1">
          <mxGeometry width="50" height="50" relative="1" as="geometry">
            <mxPoint x="1180.03" y="628.5" as="sourcePoint" />
            <mxPoint x="1217.03" y="616.5" as="targetPoint" />
          </mxGeometry>
        </mxCell>
        <mxCell id="yaiSk_rFG9hSe_wohk-j-157" value="" style="endArrow=none;html=1;rounded=0;" edge="1" parent="1">
          <mxGeometry width="50" height="50" relative="1" as="geometry">
            <mxPoint x="1115" y="400" as="sourcePoint" />
            <mxPoint x="1152" y="388" as="targetPoint" />
          </mxGeometry>
        </mxCell>
        <mxCell id="yaiSk_rFG9hSe_wohk-j-158" value="" style="endArrow=none;html=1;rounded=0;" edge="1" parent="1">
          <mxGeometry width="50" height="50" relative="1" as="geometry">
            <mxPoint x="1190" y="492.29" as="sourcePoint" />
            <mxPoint x="1300" y="352.29" as="targetPoint" />
          </mxGeometry>
        </mxCell>
        <mxCell id="yaiSk_rFG9hSe_wohk-j-159" value="" style="endArrow=none;html=1;rounded=0;" edge="1" parent="1">
          <mxGeometry width="50" height="50" relative="1" as="geometry">
            <mxPoint x="1300" y="412.29" as="sourcePoint" />
            <mxPoint x="1300" y="352.29" as="targetPoint" />
          </mxGeometry>
        </mxCell>
        <mxCell id="yaiSk_rFG9hSe_wohk-j-160" value="" style="endArrow=none;html=1;rounded=0;" edge="1" parent="1">
          <mxGeometry width="50" height="50" relative="1" as="geometry">
            <mxPoint x="1300" y="412.29" as="sourcePoint" />
            <mxPoint x="1393" y="463" as="targetPoint" />
          </mxGeometry>
        </mxCell>
        <mxCell id="yaiSk_rFG9hSe_wohk-j-161" value="" style="endArrow=none;html=1;rounded=0;" edge="1" parent="1">
          <mxGeometry width="50" height="50" relative="1" as="geometry">
            <mxPoint x="1380" y="512.29" as="sourcePoint" />
            <mxPoint x="1393" y="461" as="targetPoint" />
          </mxGeometry>
        </mxCell>
        <mxCell id="yaiSk_rFG9hSe_wohk-j-162" value="" style="endArrow=none;html=1;rounded=0;" edge="1" parent="1">
          <mxGeometry width="50" height="50" relative="1" as="geometry">
            <mxPoint x="1380" y="512.29" as="sourcePoint" />
            <mxPoint x="1260" y="502.29" as="targetPoint" />
          </mxGeometry>
        </mxCell>
        <mxCell id="yaiSk_rFG9hSe_wohk-j-163" value="" style="endArrow=none;html=1;rounded=0;" edge="1" parent="1">
          <mxGeometry width="50" height="50" relative="1" as="geometry">
            <mxPoint x="1260" y="502.29" as="sourcePoint" />
            <mxPoint x="1270" y="572.29" as="targetPoint" />
          </mxGeometry>
        </mxCell>
        <mxCell id="yaiSk_rFG9hSe_wohk-j-164" value="" style="endArrow=none;html=1;rounded=0;" edge="1" parent="1">
          <mxGeometry width="50" height="50" relative="1" as="geometry">
            <mxPoint x="1190" y="492.29" as="sourcePoint" />
            <mxPoint x="1270" y="572.29" as="targetPoint" />
          </mxGeometry>
        </mxCell>
        <mxCell id="yaiSk_rFG9hSe_wohk-j-188" value="&lt;span style=&quot;text-align: left;&quot;&gt;&quot;flight_line_angle&quot;: -0.5,&lt;/span&gt;" style="text;html=1;align=center;verticalAlign=middle;whiteSpace=wrap;rounded=0;" vertex="1" parent="1">
          <mxGeometry x="1300" y="100" width="177.97" height="30" as="geometry" />
        </mxCell>
        <mxCell id="yaiSk_rFG9hSe_wohk-j-189" value="&lt;span style=&quot;text-align: left;&quot;&gt;&quot;buffer_distance&quot;: 25,&lt;/span&gt;" style="text;html=1;align=center;verticalAlign=middle;whiteSpace=wrap;rounded=0;" vertex="1" parent="1">
          <mxGeometry x="1287.03" y="190" width="214" height="30" as="geometry" />
        </mxCell>
        <mxCell id="yaiSk_rFG9hSe_wohk-j-190" value="&lt;span style=&quot;text-align: left;&quot;&gt;&quot;flight_line_spacing&quot;: 50,&lt;/span&gt;" style="text;html=1;align=center;verticalAlign=middle;whiteSpace=wrap;rounded=0;" vertex="1" parent="1">
          <mxGeometry x="1291.98" y="130" width="194" height="30" as="geometry" />
        </mxCell>
        <mxCell id="yaiSk_rFG9hSe_wohk-j-191" value="&lt;span style=&quot;color: rgb(0, 0, 0); font-family: Helvetica; font-size: 12px; font-style: normal; font-variant-ligatures: normal; font-variant-caps: normal; font-weight: 400; letter-spacing: normal; orphans: 2; text-align: left; text-indent: 0px; text-transform: none; widows: 2; word-spacing: 0px; -webkit-text-stroke-width: 0px; white-space: normal; background-color: rgb(251, 251, 251); text-decoration-thickness: initial; text-decoration-style: initial; text-decoration-color: initial; display: inline !important; float: none;&quot;&gt;&quot;flight_line_ext_distance&quot;: 25,&lt;/span&gt;" style="text;html=1;align=center;verticalAlign=middle;whiteSpace=wrap;rounded=0;" vertex="1" parent="1">
          <mxGeometry x="1268.98" y="223.06" width="240" height="30" as="geometry" />
        </mxCell>
        <mxCell id="yaiSk_rFG9hSe_wohk-j-192" value="&#xa;&lt;span style=&quot;color: rgb(0, 0, 0); font-family: Helvetica; font-size: 12px; font-style: normal; font-variant-ligatures: normal; font-variant-caps: normal; font-weight: 400; letter-spacing: normal; orphans: 2; text-align: left; text-indent: 0px; text-transform: none; widows: 2; word-spacing: 0px; -webkit-text-stroke-width: 0px; white-space: normal; background-color: rgb(251, 251, 251); text-decoration-thickness: initial; text-decoration-style: initial; text-decoration-color: initial; display: inline !important; float: none;&quot;&gt;&quot;flight_line_shift_sideways&quot;: 0,&lt;/span&gt;&#xa;&#xa;" style="text;html=1;align=center;verticalAlign=middle;whiteSpace=wrap;rounded=0;" vertex="1" parent="1">
          <mxGeometry x="1287.03" y="160.00000000000003" width="210" height="30" as="geometry" />
        </mxCell>
        <mxCell id="yaiSk_rFG9hSe_wohk-j-193" value="anchor xy" style="text;html=1;align=center;verticalAlign=middle;whiteSpace=wrap;rounded=0;" vertex="1" parent="1">
          <mxGeometry x="1362.03" y="40" width="60" height="30" as="geometry" />
        </mxCell>
        <mxCell id="yaiSk_rFG9hSe_wohk-j-194" value="&lt;span style=&quot;text-align: left;&quot;&gt;&quot;tie_line_spacing&quot;: 50,&lt;/span&gt;" style="text;html=1;align=center;verticalAlign=middle;whiteSpace=wrap;rounded=0;" vertex="1" parent="1">
          <mxGeometry x="1476" y="130" width="130" height="30" as="geometry" />
        </mxCell>
        <mxCell id="yaiSk_rFG9hSe_wohk-j-195" value="&lt;span style=&quot;text-align: left;&quot;&gt;&quot;tie_line_shift_sideways&quot;: 0,&lt;/span&gt;" style="text;html=1;align=center;verticalAlign=middle;whiteSpace=wrap;rounded=0;" vertex="1" parent="1">
          <mxGeometry x="1459" y="153.00000000000003" width="210" height="30" as="geometry" />
        </mxCell>
        <mxCell id="yaiSk_rFG9hSe_wohk-j-197" value="&#xa;&lt;span style=&quot;color: rgb(0, 0, 0); font-family: Helvetica; font-size: 12px; font-style: normal; font-variant-ligatures: normal; font-variant-caps: normal; font-weight: 400; letter-spacing: normal; orphans: 2; text-align: left; text-indent: 0px; text-transform: none; widows: 2; word-spacing: 0px; -webkit-text-stroke-width: 0px; white-space: normal; background-color: rgb(251, 251, 251); text-decoration-thickness: initial; text-decoration-style: initial; text-decoration-color: initial; display: inline !important; float: none;&quot;&gt;&quot;tie_line_ext_distance&quot;: 25,&lt;/span&gt;&#xa;&#xa;" style="text;html=1;align=center;verticalAlign=middle;whiteSpace=wrap;rounded=0;" vertex="1" parent="1">
          <mxGeometry x="1493.98" y="230.47" width="156.72" height="30" as="geometry" />
        </mxCell>
        <mxCell id="yaiSk_rFG9hSe_wohk-j-200" value="nice to have:&lt;br&gt;if not ties and&lt;br&gt;&lt;span style=&quot;text-align: left;&quot;&gt;&quot;flight_line_ext_distance&quot;: = - 25,&lt;br&gt;the lines are shortened by 25m&lt;/span&gt;" style="text;html=1;align=center;verticalAlign=middle;whiteSpace=wrap;rounded=0;" vertex="1" parent="1">
          <mxGeometry x="2161" y="380" width="189" height="55" as="geometry" />
        </mxCell>
      </root>
    </mxGraphModel>
  </diagram>
</mxfile>
